<svg data-v-423bf9ae="" xmlns="http://www.w3.org/2000/svg" viewBox="0 0 867 90" class="iconLeft"><!----><!----><!----><g data-v-423bf9ae="" id="c8a219bb-5691-4315-829a-5b2f4e44b4de" fill="#ffffff" transform="matrix(5.6872042027481005,0,0,5.6872042027481005,252.6497158000061,-5.473935064356262)"><path d="M7.28 12.75L7.28 12.75Q6.94 13.41 6.23 13.78L6.23 13.78L6.23 13.78Q5.52 14.15 4.47 14.15L4.47 14.15L4.47 14.15Q2.86 14.15 2.10 12.93L2.10 12.93L2.10 12.93Q1.34 11.70 1.34 9.13L1.34 9.13L1.34 9.13Q1.34 6.57 2.13 5.34L2.13 5.34L2.13 5.34Q2.91 4.12 4.52 4.12L4.52 4.12L4.52 4.12Q6.44 4.12 7.28 5.67L7.28 5.67L6.83 5.89L6.83 5.89Q6.48 5.24 5.94 4.91L5.94 4.91L5.94 4.91Q5.39 4.58 4.52 4.58L4.52 4.58L4.52 4.58Q3.18 4.58 2.51 5.70L2.51 5.70L2.51 5.70Q1.83 6.82 1.83 9.13L1.83 9.13L1.83 9.13Q1.83 11.45 2.48 12.57L2.48 12.57L2.48 12.57Q3.14 13.69 4.47 13.69L4.47 13.69L4.47 13.69Q5.33 13.69 5.94 13.38L5.94 13.38L5.94 13.38Q6.54 13.08 6.83 12.52L6.83 12.52L7.28 12.75ZM16.00 13.71L15.68 14.03L14.80 13.15L14.80 13.15Q14.42 13.54 13.80 13.85L13.80 13.85L13.80 13.85Q13.19 14.15 12.26 14.15L12.26 14.15L12.26 14.15Q11.09 14.15 10.43 13.58L10.43 13.58L10.43 13.58Q9.77 13.01 9.77 11.86L9.77 11.86L9.77 11.86Q9.77 10.67 10.42 10.12L10.42 10.12L10.42 10.12Q11.06 9.58 12.63 9.58L12.63 9.58L14.62 9.58L14.62 8.78L14.62 8.78Q14.62 8.01 14.05 7.65L14.05 7.65L14.05 7.65Q13.48 7.29 12.59 7.29L12.59 7.29L12.59 7.29Q11.91 7.29 11.39 7.48L11.39 7.48L11.39 7.48Q10.86 7.66 10.60 7.95L10.60 7.95L10.26 7.60L10.26 7.60Q10.64 7.22 11.21 7.03L11.21 7.03L11.21 7.03Q11.79 6.83 12.68 6.83L12.68 6.83L12.68 6.83Q13.69 6.83 14.39 7.30L14.39 7.30L14.39 7.30Q15.08 7.77 15.08 8.67L15.08 8.67L15.08 12.80L16.00 13.71ZM12.46 13.71L12.46 13.71Q13.15 13.71 13.71 13.39L13.71 13.39L13.71 13.39Q14.28 13.08 14.62 12.64L14.62 12.64L14.62 10.02L13.02 10.02L13.02 10.02Q11.98 10.02 11.40 10.16L11.40 10.16L11.40 10.16Q10.82 10.30 10.53 10.70L10.53 10.70L10.53 10.70Q10.23 11.09 10.23 11.86L10.23 11.86L10.23 11.86Q10.23 12.87 10.82 13.29L10.82 13.29L10.82 13.29Q11.41 13.71 12.46 13.71L12.46 13.71ZM21.03 14.15L21.03 14.15Q20.15 14.15 19.40 13.92L19.40 13.92L19.40 13.92Q18.65 13.68 18.27 13.30L18.27 13.30L18.75 12.95L18.75 12.95Q19.05 13.30 19.68 13.50L19.68 13.50L19.68 13.50Q20.30 13.69 21.06 13.69L21.06 13.69L21.06 13.69Q21.94 13.69 22.63 13.29L22.63 13.29L22.63 13.29Q23.32 12.89 23.32 12.04L23.32 12.04L23.32 12.04Q23.32 11.45 22.72 11.14L22.72 11.14L22.72 11.14Q22.12 10.82 21.62 10.69L21.62 10.69L21.62 10.69Q21.11 10.56 21 10.53L21 10.53L21 10.53Q20.89 10.50 20.20 10.32L20.20 10.32L20.20 10.32Q19.50 10.14 19.01 9.70L19.01 9.70L19.01 9.70Q18.51 9.25 18.51 8.64L18.51 8.64L18.51 8.64Q18.51 8.05 18.91 7.64L18.91 7.64L18.91 7.64Q19.31 7.22 19.91 7.03L19.91 7.03L19.91 7.03Q20.52 6.83 21.15 6.83L21.15 6.83L21.15 6.83Q22.02 6.83 22.68 7.10L22.68 7.10L22.68 7.10Q23.34 7.38 23.56 7.77L23.56 7.77L23.07 8.08L23.07 8.08Q22.82 7.66 22.29 7.48L22.29 7.48L22.29 7.48Q21.76 7.29 21.15 7.29L21.15 7.29L21.15 7.29Q20.43 7.29 19.73 7.60L19.73 7.60L19.73 7.60Q19.04 7.91 19.04 8.64L19.04 8.64L19.04 8.64Q19.04 9.25 19.58 9.54L19.58 9.54L19.58 9.54Q20.12 9.83 20.57 9.93L20.57 9.93L20.57 9.93Q21.03 10.02 21.13 10.05L21.13 10.05L21.13 10.05Q21.87 10.23 22.37 10.41L22.37 10.41L22.37 10.41Q22.88 10.58 23.37 10.99L23.37 10.99L23.37 10.99Q23.86 11.40 23.86 12.03L23.86 12.03L23.86 12.03Q23.86 12.70 23.46 13.18L23.46 13.18L23.46 13.18Q23.06 13.66 22.41 13.91L22.41 13.91L22.41 13.91Q21.76 14.15 21.03 14.15L21.03 14.15ZM29.43 14.15L29.43 14.15Q28.55 14.15 27.80 13.92L27.80 13.92L27.80 13.92Q27.05 13.68 26.67 13.30L26.67 13.30L27.15 12.95L27.15 12.95Q27.45 13.30 28.08 13.50L28.08 13.50L28.08 13.50Q28.70 13.69 29.46 13.69L29.46 13.69L29.46 13.69Q30.34 13.69 31.03 13.29L31.03 13.29L31.03 13.29Q31.72 12.89 31.72 12.04L31.72 12.04L31.72 12.04Q31.72 11.45 31.12 11.14L31.12 11.14L31.12 11.14Q30.52 10.82 30.02 10.69L30.02 10.69L30.02 10.69Q29.51 10.56 29.40 10.53L29.40 10.53L29.40 10.53Q29.29 10.50 28.60 10.32L28.60 10.32L28.60 10.32Q27.90 10.14 27.41 9.70L27.41 9.70L27.41 9.70Q26.91 9.25 26.91 8.64L26.91 8.64L26.91 8.64Q26.91 8.05 27.31 7.64L27.31 7.64L27.31 7.64Q27.71 7.22 28.32 7.03L28.32 7.03L28.32 7.03Q28.92 6.83 29.55 6.83L29.55 6.83L29.55 6.83Q30.42 6.83 31.08 7.10L31.08 7.10L31.08 7.10Q31.74 7.38 31.96 7.77L31.96 7.77L31.47 8.08L31.47 8.08Q31.22 7.66 30.69 7.48L30.69 7.48L30.69 7.48Q30.16 7.29 29.55 7.29L29.55 7.29L29.55 7.29Q28.83 7.29 28.13 7.60L28.13 7.60L28.13 7.60Q27.44 7.91 27.44 8.64L27.44 8.64L27.44 8.64Q27.44 9.25 27.98 9.54L27.98 9.54L27.98 9.54Q28.52 9.83 28.97 9.93L28.97 9.93L28.97 9.93Q29.43 10.02 29.53 10.05L29.53 10.05L29.53 10.05Q30.27 10.23 30.77 10.41L30.77 10.41L30.77 10.41Q31.28 10.58 31.77 10.99L31.77 10.99L31.77 10.99Q32.26 11.40 32.26 12.03L32.26 12.03L32.26 12.03Q32.26 12.70 31.86 13.18L31.86 13.18L31.86 13.18Q31.46 13.66 30.81 13.91L30.81 13.91L30.81 13.91Q30.16 14.15 29.43 14.15L29.43 14.15ZM37.72 4.86L37.72 4.86Q37.45 4.86 37.27 4.68L37.27 4.68L37.27 4.68Q37.09 4.49 37.09 4.23L37.09 4.23L37.09 4.23Q37.09 3.96 37.27 3.78L37.27 3.78L37.27 3.78Q37.45 3.60 37.72 3.60L37.72 3.60L37.72 3.60Q37.98 3.60 38.16 3.78L38.16 3.78L38.16 3.78Q38.35 3.96 38.35 4.23L38.35 4.23L38.35 4.23Q38.35 4.49 38.16 4.68L38.16 4.68L38.16 4.68Q37.98 4.86 37.72 4.86L37.72 4.86ZM37.97 13.55L40.33 13.55L40.33 14L37.51 14L37.51 7.45L34.79 7.45L34.79 7L37.97 7L37.97 13.55ZM48.92 14L48.44 14L48.44 12.89L48.44 12.89Q48.05 13.47 47.39 13.80L47.39 13.80L47.39 13.80Q46.73 14.14 45.91 14.14L45.91 14.14L45.91 14.14Q44.88 14.14 44.31 13.54L44.31 13.54L44.31 13.54Q43.74 12.94 43.74 11.35L43.74 11.35L43.74 6.99L44.20 6.99L44.20 11.07L44.20 11.07Q44.20 12.00 44.33 12.54L44.33 12.54L44.33 12.54Q44.46 13.09 44.86 13.38L44.86 13.38L44.86 13.38Q45.25 13.68 46.00 13.68L46.00 13.68L46.00 13.68Q47.03 13.68 47.62 13.14L47.62 13.14L47.62 13.14Q48.22 12.60 48.44 12.04L48.44 12.04L48.44 6.99L48.90 6.99L48.90 12.59L48.92 14ZM54.63 14.15L54.63 14.15Q53.75 14.15 53.00 13.92L53.00 13.92L53.00 13.92Q52.25 13.68 51.87 13.30L51.87 13.30L52.35 12.95L52.35 12.95Q52.65 13.30 53.28 13.50L53.28 13.50L53.28 13.50Q53.90 13.69 54.66 13.69L54.66 13.69L54.66 13.69Q55.54 13.69 56.23 13.29L56.23 13.29L56.23 13.29Q56.92 12.89 56.92 12.04L56.92 12.04L56.92 12.04Q56.92 11.45 56.32 11.14L56.32 11.14L56.32 11.14Q55.72 10.82 55.22 10.69L55.22 10.69L55.22 10.69Q54.71 10.56 54.60 10.53L54.60 10.53L54.60 10.53Q54.49 10.50 53.80 10.32L53.80 10.32L53.80 10.32Q53.10 10.14 52.60 9.70L52.60 9.70L52.60 9.70Q52.11 9.25 52.11 8.64L52.11 8.64L52.11 8.64Q52.11 8.05 52.51 7.64L52.51 7.64L52.51 7.64Q52.91 7.22 53.52 7.03L53.52 7.03L53.52 7.03Q54.12 6.83 54.75 6.83L54.75 6.83L54.75 6.83Q55.62 6.83 56.28 7.10L56.28 7.10L56.28 7.10Q56.94 7.38 57.16 7.77L57.16 7.77L56.67 8.08L56.67 8.08Q56.42 7.66 55.89 7.48L55.89 7.48L55.89 7.48Q55.36 7.29 54.75 7.29L54.75 7.29L54.75 7.29Q54.03 7.29 53.33 7.60L53.33 7.60L53.33 7.60Q52.64 7.91 52.64 8.64L52.64 8.64L52.64 8.64Q52.64 9.25 53.18 9.54L53.18 9.54L53.18 9.54Q53.72 9.83 54.17 9.93L54.17 9.93L54.17 9.93Q54.63 10.02 54.73 10.05L54.73 10.05L54.73 10.05Q55.47 10.23 55.97 10.41L55.97 10.41L55.97 10.41Q56.48 10.58 56.97 10.99L56.97 10.99L56.97 10.99Q57.46 11.40 57.46 12.03L57.46 12.03L57.46 12.03Q57.46 12.70 57.06 13.18L57.06 13.18L57.06 13.18Q56.66 13.66 56.01 13.91L56.01 13.91L56.01 13.91Q55.36 14.15 54.63 14.15L54.63 14.15ZM74.48 12.75L74.48 12.75Q74.14 13.41 73.43 13.78L73.43 13.78L73.43 13.78Q72.72 14.15 71.67 14.15L71.67 14.15L71.67 14.15Q70.06 14.15 69.30 12.93L69.30 12.93L69.30 12.93Q68.54 11.70 68.54 9.13L68.54 9.13L68.54 9.13Q68.54 6.57 69.33 5.34L69.33 5.34L69.33 5.34Q70.11 4.12 71.72 4.12L71.72 4.12L71.72 4.12Q73.64 4.12 74.48 5.67L74.48 5.67L74.03 5.89L74.03 5.89Q73.68 5.24 73.14 4.91L73.14 4.91L73.14 4.91Q72.59 4.58 71.72 4.58L71.72 4.58L71.72 4.58Q70.38 4.58 69.71 5.70L69.71 5.70L69.71 5.70Q69.03 6.82 69.03 9.13L69.03 9.13L69.03 9.13Q69.03 11.45 69.69 12.57L69.69 12.57L69.69 12.57Q70.34 13.69 71.67 13.69L71.67 13.69L71.67 13.69Q72.53 13.69 73.14 13.38L73.14 13.38L73.14 13.38Q73.74 13.08 74.03 12.52L74.03 12.52L74.48 12.75ZM79.72 4.86L79.72 4.86Q79.45 4.86 79.27 4.68L79.27 4.68L79.27 4.68Q79.09 4.49 79.09 4.23L79.09 4.23L79.09 4.23Q79.09 3.96 79.27 3.78L79.27 3.78L79.27 3.78Q79.45 3.60 79.72 3.60L79.72 3.60L79.72 3.60Q79.98 3.60 80.16 3.78L80.16 3.78L80.16 3.78Q80.35 3.96 80.35 4.23L80.35 4.23L80.35 4.23Q80.35 4.49 80.16 4.68L80.16 4.68L80.16 4.68Q79.98 4.86 79.72 4.86L79.72 4.86ZM79.97 13.55L82.33 13.55L82.33 14L79.51 14L79.51 7.45L76.79 7.45L76.79 7L79.97 7L79.97 13.55ZM90.15 7L90.66 7L88.96 14L87.50 14L85.79 7L86.31 7L87.86 13.55L88.59 13.55L90.15 7ZM97.02 6.83L97.02 6.83Q97.90 6.83 98.52 7.27L98.52 7.27L98.52 7.27Q99.13 7.71 99.44 8.46L99.44 8.46L99.44 8.46Q99.75 9.20 99.75 10.12L99.75 10.12L99.75 10.12Q99.75 10.39 99.74 10.51L99.74 10.51L94.53 10.51L94.53 10.51Q94.54 12.03 95.17 12.86L95.17 12.86L95.17 12.86Q95.80 13.69 96.98 13.69L96.98 13.69L96.98 13.69Q97.85 13.69 98.39 13.31L98.39 13.31L98.39 13.31Q98.92 12.94 99.19 12.45L99.19 12.45L99.68 12.71L99.68 12.71Q99.33 13.24 98.66 13.70L98.66 13.70L98.66 13.70Q97.99 14.15 96.98 14.15L96.98 14.15L96.98 14.15Q95.66 14.15 94.84 13.23L94.84 13.23L94.84 13.23Q94.01 12.31 94.01 10.49L94.01 10.49L94.01 10.49Q94.01 9.27 94.43 8.44L94.43 8.44L94.43 8.44Q94.85 7.62 95.54 7.22L95.54 7.22L95.54 7.22Q96.22 6.83 97.02 6.83L97.02 6.83ZM94.54 10.07L99.19 10.07L99.19 10.07Q99.22 9.38 98.99 8.74L98.99 8.74L98.99 8.74Q98.76 8.11 98.25 7.70L98.25 7.70L98.25 7.70Q97.75 7.29 96.99 7.29L96.99 7.29L96.99 7.29Q96.01 7.29 95.33 8.00L95.33 8.00L95.33 8.00Q94.64 8.71 94.54 10.07L94.54 10.07ZM105.03 14.15L105.03 14.15Q104.15 14.15 103.40 13.92L103.40 13.92L103.40 13.92Q102.65 13.68 102.27 13.30L102.27 13.30L102.75 12.95L102.75 12.95Q103.05 13.30 103.68 13.50L103.68 13.50L103.68 13.50Q104.30 13.69 105.06 13.69L105.06 13.69L105.06 13.69Q105.94 13.69 106.63 13.29L106.63 13.29L106.63 13.29Q107.32 12.89 107.32 12.04L107.32 12.04L107.32 12.04Q107.32 11.45 106.72 11.14L106.72 11.14L106.72 11.14Q106.12 10.82 105.62 10.69L105.62 10.69L105.62 10.69Q105.11 10.56 105.00 10.53L105.00 10.53L105.00 10.53Q104.89 10.50 104.20 10.32L104.20 10.32L104.20 10.32Q103.50 10.14 103.01 9.70L103.01 9.70L103.01 9.70Q102.51 9.25 102.51 8.64L102.51 8.64L102.51 8.64Q102.51 8.05 102.91 7.64L102.91 7.64L102.91 7.64Q103.31 7.22 103.92 7.03L103.92 7.03L103.92 7.03Q104.52 6.83 105.15 6.83L105.15 6.83L105.15 6.83Q106.02 6.83 106.68 7.10L106.68 7.10L106.68 7.10Q107.34 7.38 107.56 7.77L107.56 7.77L107.07 8.08L107.07 8.08Q106.82 7.66 106.29 7.48L106.29 7.48L106.29 7.48Q105.76 7.29 105.15 7.29L105.15 7.29L105.15 7.29Q104.43 7.29 103.73 7.60L103.73 7.60L103.73 7.60Q103.04 7.91 103.04 8.64L103.04 8.64L103.04 8.64Q103.04 9.25 103.58 9.54L103.58 9.54L103.58 9.54Q104.12 9.83 104.57 9.93L104.57 9.93L104.57 9.93Q105.03 10.02 105.13 10.05L105.13 10.05L105.13 10.05Q105.87 10.23 106.37 10.41L106.37 10.41L106.37 10.41Q106.88 10.58 107.37 10.99L107.37 10.99L107.37 10.99Q107.86 11.40 107.86 12.03L107.86 12.03L107.86 12.03Q107.86 12.70 107.46 13.18L107.46 13.18L107.46 13.18Q107.06 13.66 106.41 13.91L106.41 13.91L106.41 13.91Q105.76 14.15 105.03 14.15L105.03 14.15Z"></path></g><!----><g data-v-423bf9ae="" id="1699d950-e167-466b-b672-06f0e1c88de5" transform="matrix(2.742815051666339,0,0,2.742815051666339,-16.94074135736841,-91.62481355893624)" stroke="none" fill="#0EA7FF"><path d="M26.2 35.4l-20 12.5v4.2l20 12.5 2.6-4.2L12.2 50l16.6-10.4zM71.2 39.6L87.8 50 71.2 60.4l2.6 4.2 20-12.5v-4.2l-20-12.5zM57.907 33.638l4.16 2.773-20.024 30.04-4.16-2.774z"></path></g><!----></svg>